<?xml version="1.0" encoding="UTF-8"?><svg version="1.1" viewBox="-2 -4 24 24" xmlns="http://www.w3.org/2000/svg" xmlns:xlink="http://www.w3.org/1999/xlink"><!--Generated by IJSVG (https://github.com/iconjar/IJSVG)--><path d="M20,1.907l1.95874e-07,-8.55435e-08c-0.749615,0.327378 -1.54355,0.542036 -2.356,0.637l1.86629e-07,-1.09593e-07c0.852773,-0.500767 1.49405,-1.29489 1.804,-2.234l7.08797e-07,-4.12583e-07c-0.808,0.470328 -1.68926,0.801603 -2.607,0.98l3.51202e-07,3.67874e-07c-0.781006,-0.81808 -1.86398,-1.27911 -2.995,-1.275c-2.266,0 -4.103,1.81 -4.103,4.04c0,0.316 0.036,0.625 0.106,0.92l-3.47205e-07,-1.65132e-08c-3.28656,-0.156309 -6.35566,-1.68832 -8.456,-4.221l7.45322e-08,-1.25744e-07c-0.364174,0.614401 -0.555585,1.31578 -0.554,2.03c0,1.403 0.724,2.64 1.824,3.363l-1.23904e-07,-4.00001e-09c-0.650516,-0.0210006 -1.28698,-0.194675 -1.858,-0.507v0.05c0,1.958 1.415,3.591 3.29,3.963l1.81589e-07,-4.81808e-08c-0.352389,0.0934992 -0.715417,0.140895 -1.08,0.141c-0.265,0 -0.522,-0.025 -0.773,-0.075l-1.91546e-07,-5.77262e-07c0.549504,1.65604 2.08734,2.78253 3.832,2.807l4.43931e-08,-3.41949e-08c-1.45993,1.12455 -3.25218,1.73205 -5.095,1.727c-0.332,0 -0.658,-0.02 -0.979,-0.056l-1.16093e-06,-7.34789e-07c1.88125,1.19071 4.06259,1.82128 6.289,1.818c7.547,0 11.673,-6.157 11.673,-11.496l-0.014,-0.523l5.14139e-08,-3.6177e-08c0.804856,-0.56633 1.50014,-1.27415 2.052,-2.089Z" fill="#000"></path></svg>