<?xml version="1.0" encoding="UTF-8"?><svg width="22" height="22" version="1.1" viewBox="-1.83333 -1.83333 22 22" xmlns="http://www.w3.org/2000/svg" xmlns:xlink="http://www.w3.org/1999/xlink"><!--Generated by IJSVG (https://github.com/iconjar/IJSVG)--><g transform="scale(0.916667)"><path fill="#000" d="M14.017,0h-8.07l-2.11144e-07,2.48134e-10c-3.28323,0.00385848 -5.94369,2.66477 -5.947,5.948v8.07l-2.0816e-07,-0.000179432c0.00375942,3.28323 2.66459,5.94377 5.94782,5.94718h8.07l-3.09371e-07,3.63556e-10c3.28323,-0.00385819 5.94369,-2.66477 5.947,-5.948v-8.07l2.06975e-07,0.00017841c-0.00375962,-3.28316 -2.66448,-5.94367 -5.94764,-5.94718Zm3.94,14.017v3.55271e-15c0,2.176 -1.764,3.94 -3.94,3.94c0,0 -1.77636e-15,0 -1.77636e-15,0h-8.07l-1.30727e-07,-3.31823e-11c-2.17561,-0.000552258 -3.939,-1.76439 -3.939,-3.94v-8.07l-1.26904e-07,0.000999405c3.28508e-07,-2.17561 1.76339,-3.93945 3.939,-3.94h8.07l-2.13718e-07,-5.42379e-11c2.17561,0.000552068 3.939,1.76439 3.939,3.94v8.07Z"></path><path fill="#000" d="M9.982,4.819l2.47071e-07,-3.82085e-10c-2.84946,0.00440648 -5.15815,2.31354 -5.162,5.163l-8.69155e-08,-7.54258e-05c0.00326363,2.85024 2.31269,5.16018 5.16292,5.16408l-3.37187e-08,3.91083e-11c2.85063,-0.00330634 5.16069,-2.31337 5.164,-5.164l2.30816e-08,1.49344e-05c-0.00440095,-2.85021 -2.3147,-5.15921 -5.16491,-5.16201Zm0,8.319l-1.37909e-07,-3.55271e-15c-1.74246,-7.61653e-08 -3.155,-1.41254 -3.155,-3.155c7.61653e-08,-1.74246 1.41254,-3.155 3.155,-3.155l-1.37909e-07,3.55271e-15c1.74246,-7.61653e-08 3.155,1.41254 3.155,3.155c7.61653e-08,1.74246 -1.41254,3.155 -3.155,3.155Z"></path><path fill="#000" d="M16.0307,3.98331c0.483079,0.483079 0.483079,1.2663 0,1.74938c-0.483079,0.483079 -1.2663,0.483079 -1.74938,0c-0.483079,-0.483079 -0.483079,-1.2663 0,-1.74938c0.483079,-0.483079 1.2663,-0.483079 1.74938,0"></path></g></svg>